<?xml version="1.0" encoding="utf-8"?>
<!-- Generator: Adobe Illustrator 16.0.0, SVG Export Plug-In . SVG Version: 6.00 Build 0)  -->
<!DOCTYPE svg PUBLIC "-//W3C//DTD SVG 1.1//EN" "http://www.w3.org/Graphics/SVG/1.1/DTD/svg11.dtd">
<svg version="1.1" id="Layer_9" xmlns="http://www.w3.org/2000/svg" xmlns:xlink="http://www.w3.org/1999/xlink" x="0px" y="0px"
	 width="100px" height="100px" viewBox="0 0 100 100" enable-background="new 0 0 100 100" xml:space="preserve">
<path d="M91.454,42.057c-0.099,0.106-0.25,0.173-0.375,0.274c-0.15,0.082-0.328,0.176-0.514,0.242
	c-0.094,0.029-0.193,0.058-0.296,0.088c-0.108,0.008-0.212,0.024-0.318,0.039c-0.215,0.006-0.435,0.01-0.649-0.049
	c-0.109-0.012-0.214-0.049-0.317-0.096l-0.138-0.051l-0.051-0.029l-0.102-0.057c-0.133-0.075-0.294-0.162-0.324-0.221
	c-0.063-0.067-0.137-0.099-0.204-0.204c-0.154-0.16-0.271-0.356-0.36-0.56c-0.092-0.204-0.145-0.422-0.172-0.64
	c-0.002-0.109-0.016-0.22-0.014-0.329c0.015-0.106,0.029-0.214,0.037-0.324l0.002-0.02l0.001-0.011l0.001-0.005
	c0.021-0.048-0.021,0.042-0.025,0.051l0.017-0.046l0.034-0.095l0.066-0.186c0.039-0.121,0.075-0.258,0.123-0.313
	c0.068-0.101,0.121-0.215,0.188-0.322c0.239,0.148,0.519,0.239,0.819,0.239c0.857,0,1.555-0.696,1.555-1.555
	c0-0.818-0.633-1.481-1.436-1.543v-15.91l0.459-0.38l-1.287-1.555l-11.283,9.342l-0.564-0.682L62.832,38.327l-0.565-0.682
	L50.524,47.37c-0.594,0.101-1.152,0.302-1.652,0.596C46.825,30.522,25.503,30.31,25.276,30.31c-0.656,0-1.188,0.531-1.188,1.188
	v15.796h-4.622c-2.695,0-4.879,2.186-4.879,4.88v10.118h48.129v2.583H12.392v-6.25h-2.75v7.314h2.565
	c-2.374,1.326-3.985,3.861-3.985,6.769c0,4.273,3.477,7.75,7.75,7.75s7.75-3.477,7.75-7.75c0-1.293-0.322-2.51-0.885-3.583h2.498
	c0.222-0.398,0.487-0.766,0.772-1.116c-1,1.305-1.602,2.932-1.602,4.699c0,4.273,3.477,7.75,7.75,7.75s7.75-3.477,7.75-7.75
	c0-1.293-0.322-2.51-0.885-3.583h23.567c0.222-0.398,0.487-0.766,0.772-1.116c-1,1.305-1.602,2.932-1.602,4.699
	c0,4.273,3.477,7.75,7.75,7.75s7.75-3.477,7.75-7.75c0-0.782-0.119-1.537-0.336-2.25h5.534V59.896l-5.552-11.661H64.612l1.139-4.317
	l-4.285,4.667c-0.493-0.453-1.08-0.803-1.727-1.025l6.37-5.274l-0.702-0.849l13.494-11.174l-0.723-0.873l10.107-8.367v15.423
	c-0.563,0.235-0.957,0.788-0.957,1.436c0,0.321,0.098,0.618,0.264,0.865c-0.133,0.085-0.266,0.198-0.409,0.325
	c-0.13,0.106-0.191,0.2-0.276,0.301l-0.119,0.157l-0.06,0.08l-0.03,0.042l-0.053,0.111c-0.066,0.15-0.126,0.313-0.189,0.478
	c-0.051,0.169-0.065,0.352-0.096,0.536c-0.067,0.74,0.189,1.572,0.737,2.177c0.249,0.295,0.73,0.624,0.957,0.699l0.104,0.05
	l0.054,0.023l0.026,0.013l0.066,0.03l0.004,0.002l0.008,0.002l0.019,0.004l0.284,0.068c0.188,0.049,0.373,0.082,0.563,0.07
	c0.373,0.022,0.728-0.066,1.035-0.172c0.152-0.07,0.299-0.134,0.432-0.205c0.121-0.093,0.238-0.182,0.35-0.269
	c0.215-0.177,0.361-0.385,0.482-0.568c0.105-0.203,0.197-0.376,0.225-0.514c0.055-0.282,0.073-0.45,0.073-0.45
	S91.653,41.85,91.454,42.057z M46.654,50.801c-0.127,0.436-0.198,0.895-0.198,1.372v0.94h-3.793l0.209-6.377
	c0.646-0.151,1.13-0.729,1.13-1.423c0-0.809-0.655-1.465-1.464-1.465c-0.811,0-1.465,0.656-1.465,1.465
	c0,0.591,0.35,1.096,0.852,1.328l-0.212,6.472h-0.76l-1.452-8.478c0.398-0.26,0.662-0.709,0.662-1.223
	c0-0.809-0.656-1.465-1.467-1.465c-0.809,0-1.463,0.656-1.463,1.465c0,0.768,0.591,1.391,1.343,1.453l1.413,8.247h-8.814v-0.94
	c0-2.639-2.094-4.782-4.711-4.871V32.732c4.535,0.294,20.19,2.439,20.19,18.007V50.801z M15.972,77.457
	c-2.619,0-4.75-2.131-4.75-4.75s2.131-4.75,4.75-4.75s4.75,2.131,4.75,4.75S18.591,77.457,15.972,77.457z M32.256,77.457
	c-2.619,0-4.75-2.131-4.75-4.75s2.131-4.75,4.75-4.75s4.75,2.131,4.75,4.75S34.875,77.457,32.256,77.457z M69.609,77.457
	c-2.619,0-4.75-2.131-4.75-4.75s2.131-4.75,4.75-4.75s4.75,2.131,4.75,4.75S72.229,77.457,69.609,77.457z M65.716,51.235h9.396
	l3.862,8.111H65.716V51.235z M17.673,72.707c0,0.939-0.762,1.701-1.701,1.701s-1.701-0.762-1.701-1.701s0.762-1.701,1.701-1.701
	S17.673,71.768,17.673,72.707z M33.957,72.707c0,0.939-0.762,1.701-1.701,1.701s-1.701-0.762-1.701-1.701s0.762-1.701,1.701-1.701
	S33.957,71.768,33.957,72.707z M71.311,72.707c0,0.939-0.762,1.701-1.701,1.701s-1.701-0.762-1.701-1.701s0.762-1.701,1.701-1.701
	S71.311,71.768,71.311,72.707z"/>
</svg>
