<?xml version="1.0" encoding="iso-8859-1"?>
<!-- Generator: Adobe Illustrator 16.0.0, SVG Export Plug-In . SVG Version: 6.00 Build 0)  -->
<!DOCTYPE svg PUBLIC "-//W3C//DTD SVG 1.1//EN" "http://www.w3.org/Graphics/SVG/1.1/DTD/svg11.dtd">
<svg version="1.1" id="Capa_1" xmlns="http://www.w3.org/2000/svg" xmlns:xlink="http://www.w3.org/1999/xlink" x="0px" y="0px"
	 width="46.663px" height="38.765px" viewBox="0 0 46.663 38.765" style="enable-background:new 0 0 46.663 38.765;"
	 xml:space="preserve">
<g>
	<path d="M37.687,20.71c-4.945,0-8.973,4.025-8.973,8.975s4.026,8.974,8.973,8.974c4.95,0,8.977-4.024,8.977-8.974
		S42.637,20.71,37.687,20.71z M37.687,36.094c-3.532,0-6.409-2.875-6.409-6.409c0-3.535,2.877-6.41,6.409-6.41
		c3.535,0,6.411,2.875,6.411,6.41C44.098,33.219,41.222,36.094,37.687,36.094z"/>
	<path d="M23.588,11.551v0.01h8.047c-2.375-2.4-5.273-5.251-5.99-5.578c-1.257-0.575-3.966,1.462-4.547,1.748
		c-0.532,0.283-0.954,0.699-1.043,1.236l-2.112,5.927l-6.167,0.069c-1.811,0.485-0.465,2.065-0.465,2.065l3.097,0.041l-0.295,1.405
		l-1.803,2.989c-1.03-0.414-2.153-0.648-3.333-0.648C4.027,20.815,0,24.842,0,29.791c0,4.947,4.026,8.974,8.977,8.974
		c4.948,0,8.975-4.026,8.975-8.974c0-2.853-1.342-5.393-3.423-7.038l2.005-3.326l0.487-2.322l2.41,0.03
		c0.479-0.136,0.833-0.538,0.912-1.029l2.603-4.074L23.588,11.551z M15.386,29.79c0,3.533-2.875,6.409-6.409,6.409
		s-6.411-2.876-6.411-6.409c0-3.535,2.877-6.411,6.411-6.411c0.694,0,1.36,0.114,1.986,0.32l-3.579,5.939l2.197,1.323l3.607-5.989
		C14.532,26.147,15.386,27.869,15.386,29.79z"/>
	<path d="M32.24,19.189c0,0,2.468-2.578,2.691-2.968c0.225-0.392,0.229-0.872,0.007-1.265c0,0-0.725-0.76-1.771-1.832v0.014h-8.949
		l4.281,3.716l-6.367,9.947c-0.184,0.317-0.223,0.697-0.104,1.045l2.563,7.692l3.072-0.17l-1.741-7.787L32.24,19.189z"/>
	<circle cx="19.703" cy="3.435" r="3.435"/>
	<path d="M32.845,1.969c-1.06-0.744-2.366-0.789-3.123-0.034l-1.484,1.487c-0.756,0.756-0.711,2.062,0.03,3.124L32.845,1.969z"/>
	<path d="M33.007,11.367c1.116,1.116,2.73,1.311,3.607,0.436l1.485-1.488c0.877-0.876,0.685-2.491-0.434-3.606l-4.081-4.081
		l-4.659,4.658L33.007,11.367z"/>
</g>
<g>
</g>
<g>
</g>
<g>
</g>
<g>
</g>
<g>
</g>
<g>
</g>
<g>
</g>
<g>
</g>
<g>
</g>
<g>
</g>
<g>
</g>
<g>
</g>
<g>
</g>
<g>
</g>
<g>
</g>
</svg>
