<?xml version="1.0" encoding="utf-8"?>
<!-- Generator: Adobe Illustrator 16.0.0, SVG Export Plug-In . SVG Version: 6.00 Build 0)  -->
<!DOCTYPE svg PUBLIC "-//W3C//DTD SVG 1.1//EN" "http://www.w3.org/Graphics/SVG/1.1/DTD/svg11.dtd">
<svg version="1.1" id="Layer_10" xmlns="http://www.w3.org/2000/svg" xmlns:xlink="http://www.w3.org/1999/xlink" x="0px" y="0px"
	 width="100px" height="100px" viewBox="0 0 100 100" enable-background="new 0 0 100 100" xml:space="preserve">
<path d="M91.799,44.297l-12.264-4.236l-7.104-12.063c-2.379-3.748-3.998-4.971-11.129-4.971H8.605c-2.746,0-4.973,2.227-4.973,4.971
	v26.443v4.734v2.605c0,2.746,2.227,4.973,4.973,4.973h2.639c0.328-5.459,4.846-9.789,10.387-9.789s10.059,4.33,10.387,9.789h35.736
	c0.197-3.223,1.877-6.311,4.813-8.17c4.861-3.08,11.297-1.637,14.377,3.223c0.977,1.543,1.496,3.244,1.598,4.947h3.258
	c2.746,0,4.971-2.227,4.971-4.973V49.27C96.77,46.523,94.734,45.264,91.799,44.297z M73.137,41.416H50.475
	c-0.34,0-0.613-0.273-0.613-0.611V28.771c0-0.338,0.273-0.611,0.613-0.611h16.23c0.336,0,0.836,0.125,1.084,0.611l5.959,12.033
	C73.748,41.143,73.475,41.416,73.137,41.416z M95.896,56.783c0,0.918-0.744,1.662-1.662,1.662h-5.125
	c-0.918,0-1.662-0.744-1.662-1.662v-3.74c0-0.918,0.744-1.662,1.662-1.662h5.125c0.918,0,1.662,0.744,1.662,1.662V56.783z
	 M21.506,58.072c-5.211,0-9.451,4.24-9.451,9.451s4.24,9.449,9.451,9.449s9.449-4.238,9.449-9.449S26.717,58.072,21.506,58.072z
	 M21.506,73.973c-3.559,0-6.451-2.893-6.451-6.449s2.893-6.451,6.451-6.451c3.557,0,6.449,2.895,6.449,6.451
	S25.063,73.973,21.506,73.973z M78.184,58.072c-5.211,0-9.451,4.24-9.451,9.451s4.24,9.449,9.451,9.449s9.451-4.238,9.451-9.449
	S83.395,58.072,78.184,58.072z M78.184,73.973c-3.557,0-6.451-2.893-6.451-6.449s2.895-6.451,6.451-6.451
	c3.559,0,6.451,2.895,6.451,6.451S81.742,73.973,78.184,73.973z"/>
</svg>
